# xmcd CD database file
# Copyright (C) 1993-1998 Ti Kan
#
# Track frame offsets:
#	150
#	12917
#	24460
#	38365
#	51940
#	76637
#	92870
#	107965
#	121157
#	134735
#	156109
#	170680
#	188970
#	193470
#	209775
#
# Disc length: 3146 seconds
#
# Revision: 1
# Processed by: cddbd v1.4b41PL1 Copyright (c) Steve Scherf et al.
# Submitted via: CDValet v3.31 - Copyright (c) 1997 Greg Leichner
#
DISCID=d20c480f
DTITLE=Lightning Hopkins - Houston Gold
DYEAR=1900
DGENRE=
TTITLE0=Late In The Evening
TTITLE1=Lightnin' Jump
TTITLE2=War Is Starting Again
TTITLE3=Got Me A Louisiana Woman
TTITLE4=Born In The Bottoms
TTITLE5=Mojo Hand
TTITLE6=The World's A Tangle
TTITLE7=I Went To Louisiana
TTITLE8=I Feel Like Balling the Jack
TTITLE9=A Man Like Me Is Hard To Find
TTITLE10=Go Ahead
TTITLE11=I Wonder Where She Can Be Tonight
TTITLE12=Old Man
TTITLE13=Moving Out
TTITLE14=Crying For Bread
EXTD=
EXTT0=
EXTT1=
EXTT2=
EXTT3=
EXTT4=
EXTT5=
EXTT6=
EXTT7=
EXTT8=
EXTT9=
EXTT10=
EXTT11=
EXTT12=
EXTT13=
EXTT14=
PLAYORDER=
